<?xml version="1.0" encoding="UTF-8"?>
<svg id="Layer_1" data-name="Layer 1" xmlns="http://www.w3.org/2000/svg" viewBox="0 0 99.2 82.45">
  <defs>
    <style>
      .cls-1 {
        stroke: #fff;
        stroke-width: .91px;
      }

      .cls-1, .cls-2 {
        fill: none;
      }

      .cls-2, .cls-3 {
        stroke-width: 0px;
      }

      .cls-3 {
        fill: #fff;
      }
    </style>
  </defs>
  <path class="cls-1" d="m98.75,30.35h-9.91C84.08,13.11,68.3.45,49.55.45S15.02,13.11,10.26,30.35H.45v21.97h9.87c4.83,17.12,20.56,29.68,39.23,29.68s34.4-12.55,39.23-29.68h9.97v-21.97Z"/>
  <path class="cls-2" d="m87.88,41c0,21.17-17.16,38.33-38.33,38.33S11.22,62.17,11.22,41,28.38,2.67,49.55,2.67s38.33,17.16,38.33,38.33Z"/>
  <path class="cls-3" d="m97.2,31.85h-9.69c-3.26-13.53-13.64-24.9-28.01-28.69C38.67-2.35,17.25,10.12,11.75,30.95c-.08.3-.15.6-.23.9H1.95v18.97h9.78c3.47,13.17,13.73,24.16,27.81,27.88,20.83,5.5,42.25-6.97,47.75-27.79,0-.03.01-.06.02-.08h9.89v-18.97Zm-62.45,31.36c-2.9-1.02-5.75-2.15-8.55-3.4-.47-.21-.93-.42-1.39-.64-.67-2.7-1.05-5.5-1.19-8.34h12.06c-.43,2.96-.74,5.93-.88,8.88-.05,1.17-.07,2.34-.06,3.5Zm29.73-40.84c.07-1.26.11-2.52.12-3.78,2.64.86,5.25,1.81,7.82,2.88.83.35,1.65.72,2.47,1.1.78,2.99,1.21,6.12,1.34,9.28h-12.81c.51-3.16.89-6.33,1.07-9.48Zm-.09-8.57c.18.02.36.03.55.05,1.38.1,2.76.13,4.15,0,.66-.06,1.32-.17,1.97-.36,1.56,2.47,2.75,5.24,3.58,8.15.08.26.14.53.21.79-.71-.34-1.42-.67-2.14-.99-2.65-1.19-5.36-2.27-8.1-3.24,0-1.48-.07-2.94-.21-4.38Zm-16.49,18.05c-2.06-.53-4.13-1.02-6.21-1.47.15-.44.3-.87.45-1.3,3.15,1.04,6.34,1.95,9.55,2.75.03,0,.07.02.1.02h-3.88Zm-3.52,0h-3.16c.06-.2.12-.39.19-.59.99.19,1.99.38,2.98.59Zm10.06,18.97c1.3.27,2.59.52,3.9.75-.24.71-.48,1.42-.74,2.13-2.81-1.07-5.66-2.02-8.54-2.88h5.38Zm2.81,0h1.33c-.03.09-.06.18-.08.26-.42-.09-.83-.17-1.25-.26Zm6.91-28.48c-.15,3.16-.5,6.34-.99,9.51h-8.05c-1.12-.28-2.25-.58-3.36-.89-3.12-.88-6.2-1.86-9.24-2.97.02-.05.04-.1.05-.15,1.23-3.41,2.59-6.75,4.17-9.95.57-1.15,1.17-2.29,1.79-3.41,2.4.46,4.79.98,7.17,1.56,2.87.72,5.72,1.51,8.53,2.42.02,1.28,0,2.57-.07,3.88Zm-8.15-6.88c-2.32-.65-4.67-1.24-7.03-1.77.6-1.03,1.23-2.03,1.9-2.98,1.93.74,3.91,1.33,5.91,1.82,2.34.57,4.73,1.01,7.13,1.24.13,1.07.21,2.15.26,3.25.01.34.02.69.03,1.03-2.71-.95-5.45-1.81-8.21-2.59Zm-7.36-2.83c-.18.29-.36.58-.54.88-3.14-.68-6.31-1.24-9.51-1.62-.18-.02-.36-.04-.54-.06,1.88-1.83,3.93-3.46,6.12-4.75.35.31.71.58,1.09.84,1.17.8,2.42,1.43,3.68,2,.39.17.79.34,1.18.5-.51.72-1,1.46-1.48,2.22Zm-10.23.41c3.08.29,6.16.73,9.21,1.29-.57.99-1.12,1.99-1.64,3.02-1.68,3.31-3.15,6.77-4.43,10.31-2.13-.8-4.24-1.66-6.32-2.59-1.74-.78-3.45-1.61-5.11-2.53,0-.02.02-.04.03-.05,1.89-3.49,4.17-6.74,6.84-9.56.47.04.95.08,1.42.12Zm-3.64,13.31c2.1.88,4.23,1.68,6.38,2.41-.16.47-.32.94-.48,1.41-2.88-.6-5.79-1.13-8.71-1.53-1.48-.19-2.96-.37-4.44-.5.58-1.47,1.22-2.91,1.93-4.31,1.74.93,3.53,1.75,5.33,2.52Zm-3.02,3.44c2.88.34,5.75.77,8.61,1.29-.08.26-.16.52-.25.77h-13.93c.27-.84.55-1.68.86-2.51,1.57.11,3.14.26,4.7.44Zm3.95,29.8c.17-2.91.51-5.84.97-8.77h10.05c3.63.91,7.22,1.95,10.75,3.18-1.29,3.55-2.74,7.01-4.42,10.32-.59,1.19-1.23,2.34-1.89,3.47-2.87-.6-5.72-1.31-8.54-2.1-2.37-.67-4.72-1.4-7.04-2.19,0-1.3.05-2.61.13-3.91Zm17.64,4.87c1.6-3.23,2.98-6.61,4.22-10.05.04-.11.08-.22.12-.33,1.86.65,3.7,1.35,5.52,2.11,2.23.96,4.44,2,6.54,3.21-.06.12-.13.24-.19.37-1.96,3.57-4.35,6.86-7.12,9.71-.89-.07-1.79-.16-2.67-.26-2.76-.33-5.5-.79-8.22-1.35.63-1.11,1.22-2.25,1.8-3.41Zm10.13-8.32c-1.87-.84-3.77-1.62-5.69-2.35.26-.72.51-1.44.75-2.17,2.79.5,5.58.92,8.39,1.25,1.86.22,3.72.39,5.58.5-.79,2.05-1.7,4.05-2.74,5.98-2.03-1.2-4.15-2.25-6.3-3.21Zm3.29-3.61c-2.71-.38-5.4-.85-8.07-1.4.03-.1.06-.2.1-.31h14.63c-.26.78-.53,1.55-.82,2.32-1.95-.14-3.9-.35-5.84-.61Zm19.22-20.68h-.06c0-.06.01-.13.02-.19.02.06.03.13.05.19Zm-.37,0h-9.13c-.1-3.08-.48-6.14-1.2-9.09,1.7.81,3.37,1.68,4.97,2.69,1.24.79,2.44,1.64,3.51,2.66.53.51,1.02,1.06,1.4,1.7.36.6.61,1.33.45,2.05Zm-.12-1.8s-.03-.05-.05-.08c-.38-.64-.87-1.2-1.4-1.72-1.07-1.03-2.28-1.89-3.52-2.69-1.7-1.08-3.47-2.05-5.28-2.94-.08-.34-.17-.68-.26-1.02-.81-2.93-1.96-5.75-3.48-8.29.22-.09.43-.19.62-.32.3-.2.6-.5.7-.89.06-.23.05-.46,0-.68,6.04,4.78,10.45,11.32,12.67,18.63Zm-12.8-18.73c.06.23.08.46.02.7-.1.39-.39.68-.7.87-.19.12-.38.22-.58.3-.6-.99-1.27-1.94-1.99-2.83-.89-1.1-1.88-2.1-2.96-3,2.22,1.12,4.29,2.45,6.21,3.95Zm-9.55-5.44c.48.26.96.53,1.42.83,1.64,1.06,3.12,2.4,4.42,3.94.72.85,1.38,1.76,1.99,2.71-.65.19-1.32.29-1.98.35-1.38.11-2.76.04-4.12-.08-.17-.02-.34-.04-.51-.06-.06-.61-.14-1.22-.23-1.82-.28-1.7-.7-3.35-1.4-4.79-.29-.6-.64-1.15-1.05-1.62.5.17.98.35,1.47.53Zm-3.8-1.24c1.23.29,2.2,1.33,2.88,2.66.69,1.34,1.13,2.92,1.43,4.57.1.54.18,1.08.25,1.64-2.39-.3-4.74-.83-7.05-1.47-1.89-.53-3.75-1.17-5.56-1.91.28-.39.57-.77.86-1.14,1.04-1.3,2.18-2.48,3.41-3.34.61-.42,1.25-.75,1.9-.94.64-.19,1.29-.22,1.89-.07Zm-3.26-.74c.33.06.67.12,1,.19-.57.19-1.14.48-1.68.83-1.34.87-2.56,2.09-3.67,3.4-.4.48-.79.98-1.17,1.5-.46-.2-.92-.4-1.37-.62-1.23-.58-2.43-1.23-3.55-2.01-.25-.17-.49-.36-.73-.55.94-.52,1.9-.97,2.88-1.35,1.86-.73,3.79-1.2,5.72-1.36.85-.07,1.71-.08,2.56-.03Zm-12.7.37c.04-.18.17-.35.34-.5,2.48-.39,5.01-.53,7.58-.41-1.24.22-2.47.56-3.68,1-1.19.43-2.34.96-3.47,1.57-.01-.02-.03-.03-.05-.05-.23-.25-.43-.51-.57-.8-.15-.28-.21-.58-.14-.82Zm-12.48,4.16c2.6-1.53,5.39-2.77,8.29-3.65,1.18-.34,2.38-.62,3.6-.85-.03.07-.05.14-.07.21-.07.26-.07.54-.02.78.05.24.13.45.22.64.15.29.33.54.53.77-2.31,1.34-4.48,3.02-6.44,4.94-.13.13-.26.27-.4.41-2.3-.21-4.61-.32-6.94-.22-1.21.06-2.42.17-3.63.4,1.53-1.27,3.16-2.41,4.87-3.42Zm-8.37,6.82c.02-.07.04-.13.07-.2.3-.31.6-.62.91-.93.03-.02.07-.04.1-.06.55-.32,1.21-.55,1.88-.73,1.35-.35,2.79-.5,4.23-.58,1.92-.1,3.86-.07,5.8.04-2.47,2.69-4.63,5.73-6.42,8.99-.02.03-.03.07-.05.1-.51-.3-1.01-.6-1.5-.92-1.21-.78-2.38-1.62-3.39-2.59-.5-.49-.95-1.01-1.28-1.56-.33-.55-.48-1.12-.35-1.57Zm-2.6,2.95c.4-.53.81-1.04,1.24-1.55.11.37.27.71.45,1.01.43.73.97,1.32,1.53,1.86,1.13,1.07,2.37,1.95,3.64,2.76.51.32,1.03.62,1.55.92-.8,1.56-1.52,3.17-2.16,4.81-1.42-.1-2.85-.17-4.29-.16-1.69,0-3.39.09-5.11.39-.85.15-1.7.36-2.55.73,1.3-3.86,3.21-7.51,5.68-10.75Zm-6.48,13.46c.02-.09.04-.17.07-.26.02-.07.04-.14.06-.21.2-.38.68-.74,1.25-.99.68-.31,1.45-.5,2.23-.65,1.57-.29,3.21-.38,4.85-.4,1.27,0,2.55.02,3.82.09-.31.86-.6,1.72-.88,2.59h-11.39c0-.06-.01-.12,0-.17Zm.11,19.15h8.83c.14,2.61.5,5.19,1.08,7.7-1.7-.85-3.36-1.76-4.94-2.78-1.2-.78-2.37-1.62-3.37-2.59-.49-.48-.95-1.01-1.27-1.56-.15-.26-.26-.52-.33-.78Zm9.01,16.32c-2.03-2.17-3.81-4.57-5.29-7.15-.93-1.62-1.74-3.31-2.42-5.05.93.79,1.92,1.48,2.92,2.12,1.98,1.24,4.05,2.29,6.15,3.24.02.08.04.16.06.24,1.2,4.16,3.13,8.08,5.82,11.24.83.98,1.74,1.89,2.72,2.69-3.76-1.9-7.11-4.4-9.96-7.33Zm14.33,9.21c-.75-.37-1.48-.79-2.18-1.27-1.6-1.1-3.05-2.46-4.31-4.01-2.35-2.9-4.04-6.43-5.15-10.17.15.06.31.13.46.2,2.96,1.24,5.98,2.32,9.04,3.28,0,.25.01.49.02.74.08,1.79.25,3.55.56,5.25.32,1.7.77,3.35,1.51,4.78.3.57.65,1.1,1.05,1.55-.34-.11-.68-.22-1.01-.34Zm3.24.98c-1.22-.33-2.15-1.41-2.8-2.75-.65-1.35-1.05-2.94-1.32-4.58-.27-1.73-.4-3.54-.43-5.36,2.3.7,4.62,1.34,6.95,1.92,2.75.68,5.52,1.27,8.3,1.78-.13.21-.25.42-.39.63-.93,1.49-1.92,2.91-3,4.2-1.08,1.29-2.24,2.45-3.5,3.27-.63.41-1.28.72-1.93.89-.65.17-1.3.18-1.89,0Zm3.94.8c-.53-.08-1.05-.17-1.58-.27.59-.21,1.17-.52,1.72-.89,1.32-.91,2.5-2.13,3.58-3.47,1.26-1.57,2.39-3.3,3.44-5.1,2.88.51,5.78.91,8.68,1.18.74.07,1.49.13,2.23.18-.11.11-.22.23-.34.34-3.04,2.97-6.55,5.37-10.33,6.76-1.89.69-3.84,1.12-5.79,1.24-.54.04-1.07.04-1.61.02Zm3.6.35c1.38-.25,2.74-.63,4.06-1.15,3.84-1.49,7.35-4,10.37-7.03.17-.17.33-.34.49-.51,2.04.12,4.09.16,6.13.05,1.47-.08,2.94-.24,4.37-.61.67-.18,1.34-.41,1.95-.74-7.3,6.74-17.14,10.49-27.38,9.99Zm28.67-11.86c-.2.73-.79,1.27-1.42,1.63-.64.37-1.35.6-2.05.79-1.42.36-2.89.5-4.35.58-1.88.08-3.76.03-5.63-.11,2.7-2.86,5.01-6.14,6.92-9.66.05-.1.11-.21.17-.32.35.2.7.41,1.04.63,1.23.78,2.43,1.63,3.5,2.65.53.51,1.02,1.06,1.4,1.7.37.62.63,1.38.44,2.12Zm.13.49c.05-.1.09-.21.12-.32.2-.74-.06-1.51-.43-2.13-.38-.64-.87-1.2-1.39-1.72-1.06-1.03-2.27-1.89-3.5-2.69-.42-.27-.85-.53-1.28-.78,1.05-1.96,1.97-4,2.77-6.09,1.38.08,2.76.12,4.15.11,1.67-.02,3.34-.11,4.99-.4.82-.15,1.64-.36,2.41-.7.38-.17.75-.38,1.07-.66.07-.06.14-.13.2-.2-1.78,6.05-4.96,11.33-9.11,15.58Zm8.65-15.54c-.32.27-.69.48-1.07.65-.76.34-1.58.53-2.4.68-1.64.29-3.31.37-4.97.38-1.28,0-2.56-.05-3.84-.13.29-.77.56-1.55.82-2.34h12.04c-.13.29-.34.54-.58.75ZM7.19,35.92h-2.27v-1.44h6.19v1.44h-2.27v5.68h-1.64v-5.68Zm4.53,2.14v-.02c0-2.02,1.68-3.68,3.98-3.68s3.96,1.64,3.96,3.66v.02c0,2.02-1.68,3.68-3.98,3.68s-3.96-1.64-3.96-3.66Zm6.22,0v-.02c0-1.22-.94-2.24-2.26-2.24s-2.24,1-2.24,2.22v.02c0,1.22.94,2.24,2.26,2.24s2.24-1,2.24-2.22Zm5.26-3.63h1.52l3.2,7.17h-1.72l-.68-1.6h-3.16l-.68,1.6h-1.68l3.2-7.17Zm1.73,4.19l-.99-2.31-.99,2.31h1.99Zm3.52,1.94l.97-1.11c.67.53,1.38.86,2.23.86.67,0,1.08-.25,1.08-.67v-.02c0-.4-.26-.6-1.5-.91-1.5-.37-2.48-.76-2.48-2.18v-.02c0-1.29,1.09-2.15,2.61-2.15,1.09,0,2.02.33,2.77.91l-.85,1.18c-.66-.44-1.31-.7-1.94-.7s-.96.27-.96.62v.02c0,.47.32.62,1.61.94,1.52.38,2.37.9,2.37,2.14v.02c0,1.41-1.13,2.21-2.74,2.21-1.13,0-2.27-.38-3.17-1.14Zm8.92-4.64h-2.27v-1.44h6.19v1.44h-2.27v5.68h-1.64v-5.68Zm5.18-1.44h1.77l1.96,3.01,1.96-3.01h1.77v7.12h-1.63v-4.65l-2.1,3.04h-.04l-2.08-3.01v4.62h-1.61v-7.12Zm11.83-.05h1.52l3.2,7.17h-1.72l-.68-1.6h-3.16l-.68,1.6h-1.68l3.2-7.17Zm1.73,4.19l-.99-2.31-.99,2.31h1.99Zm3.52,1.94l.97-1.11c.67.53,1.38.86,2.23.86.67,0,1.08-.25,1.08-.67v-.02c0-.4-.26-.6-1.5-.91-1.5-.37-2.48-.76-2.48-2.18v-.02c0-1.29,1.09-2.15,2.61-2.15,1.09,0,2.02.33,2.77.91l-.85,1.18c-.66-.44-1.31-.7-1.94-.7s-.96.27-.96.62v.02c0,.47.32.62,1.61.94,1.52.38,2.37.9,2.37,2.14v.02c0,1.41-1.13,2.21-2.74,2.21-1.13,0-2.27-.38-3.17-1.14Zm8.92-4.64h-2.27v-1.44h6.19v1.44h-2.27v5.68h-1.64v-5.68Zm5.18-1.44h5.64v1.39h-4v1.44h3.52v1.39h-3.52v1.5h4.06v1.39h-5.69v-7.12Zm7.15,0h3.42c.95,0,1.69.25,2.18.72.42.4.64.96.64,1.63v.02c0,1.15-.65,1.87-1.6,2.21l1.83,2.54h-1.92l-1.6-2.28h-1.29v2.28h-1.64v-7.12Zm3.31,3.46c.8,0,1.26-.41,1.26-1.01v-.02c0-.67-.49-1.02-1.29-1.02h-1.63v2.04h1.66Zm3.9,2.62l.97-1.11c.67.53,1.38.86,2.23.86.67,0,1.08-.25,1.08-.67v-.02c0-.4-.26-.6-1.5-.91-1.5-.37-2.48-.76-2.48-2.18v-.02c0-1.29,1.09-2.15,2.61-2.15,1.09,0,2.02.33,2.77.91l-.85,1.18c-.66-.44-1.31-.7-1.94-.7s-.96.27-.96.62v.02c0,.47.32.62,1.61.94,1.52.38,2.37.9,2.37,2.14v.02c0,1.41-1.13,2.21-2.74,2.21-1.13,0-2.27-.38-3.17-1.14Zm-5.18,3.38h0c0-.26.21-.48.47-.48s.47.21.47.47h0c0,.26-.21.48-.47.48s-.47-.21-.47-.47Zm.89,0h0c0-.23-.18-.42-.42-.42s-.42.19-.42.42h0c0,.23.18.42.42.42s.42-.19.42-.42Zm-.6-.25h.22c.11,0,.18.05.18.15,0,.08-.05.13-.11.15l.13.18h-.11l-.11-.17h-.1v.17h-.09v-.48Zm.21.24c.06,0,.1-.03.1-.08,0-.05-.04-.08-.1-.08h-.12v.16h.12Zm-68.29-.54h.53l-.02,4.67h-.52v-4.67Zm2.93,0h.5l2.94,3.73v-3.73h.51v4.67h-.41l-3.02-3.82v3.82h-.52v-4.67Zm7.54.49h-1.56v-.49h3.67v.48h-1.57v4.18h-.53v-4.18Zm4.13-.51h3.38v.48h-2.84v1.59s2.55,0,2.55,0v.48s-2.55,0-2.55,0v1.63s2.88.01,2.88.01v.47s-3.41,0-3.41,0v-4.67Zm5.51.02h1.87c.7,0,1.18.15,1.49.48.14.15.34.53.34.87h0c0,.78-.45,1.27-1.26,1.42l1.43,1.91h-.65s-1.36-1.81-1.36-1.81h-1.33v1.81h-.53v-4.67Zm1.83,2.39c1,0,1.33-.46,1.34-1.02h0c-.07-.46-.28-.88-1.32-.88h-1.33s0,1.9,0,1.9h1.31Zm4.03-2.39h.5l2.94,3.75v-3.75s.51,0,.51,0v4.67s-.42,0-.42,0l-3.01-3.82v3.82h-.52v-4.67Zm8.05-.03h.49l2.13,4.7h-.57l-.54-1.23h-2.55s-.55,1.23-.55,1.23h-.54l2.13-4.7Zm1.3,2.99l-1.06-2.37-1.07,2.37h2.13Zm3.91-2.47h-1.56s0-.49,0-.49h3.67v.49h-1.57v4.18h-.53v-4.18Zm4.18-.49h.53v4.67h-.53v-4.67Zm2.73,2.35h0c0-1.29.97-2.43,2.34-2.43,1.5,0,2.41,1.12,2.41,2.4h0c.05,1.39-1.25,2.77-2.99,2.37-.96-.22-1.75-1.14-1.77-2.34Zm4.22,0h0c0-1.17-.87-1.94-1.84-1.93-1.16.01-1.83.91-1.83,1.92h0c0,1.12.74,1.72,1.33,1.88,1.28.35,2.38-.68,2.34-1.86Zm2.7-2.34h.5l2.94,3.74v-3.74h.52v4.67h-.42l-3.01-3.82v3.82h-.52v-4.67Zm8.04-.03h.49l2.13,4.7h-.57l-.56-1.23h-2.53s-.56,1.23-.56,1.23h-.54l2.13-4.7Zm1.3,2.98l-1.06-2.37-1.06,2.38h2.13Zm3.28-2.95h.53v4.18s2.63,0,2.63,0v.48h-3.16v-4.67Z"/>
</svg>