<svg width="204" height="32" viewBox="0 0 204 32" fill="none" xmlns="http://www.w3.org/2000/svg">
<path d="M179 22.0048C179 21.4571 179.44 21 180 21C180.56 21 181 21.4524 181 21.9952C181 22.5429 180.56 23 180 23C179.44 23 179 22.5476 179 22.0048ZM180.88 22C180.88 21.5095 180.502 21.1095 179.995 21.1095C179.488 21.1095 179.11 21.5143 179.11 22C179.11 22.4905 179.488 22.8905 179.995 22.8905C180.502 22.8905 180.88 22.4857 180.88 22ZM179.608 21.4762H180.067C180.292 21.4762 180.459 21.5857 180.459 21.7952C180.459 21.9619 180.364 22.0619 180.225 22.1048L180.493 22.4857H180.258L180.019 22.1381H179.809V22.4857H179.612V21.4762H179.608ZM180.048 21.9809C180.182 21.9809 180.254 21.9143 180.254 21.8143C180.254 21.7048 180.177 21.6476 180.048 21.6476H179.799V21.9809H180.048Z" fill="#0F172B"/>
<path d="M23.4581 20.9492H24.6763L24.64 31.6389H23.4529V20.9492H23.4581Z" fill="#0F172B"/>
<path d="M30.1611 20.9492H31.3068L38.0462 29.4926V20.9492H39.223V31.6389H38.2795L31.3638 22.8881L31.3327 31.6389H30.1767L30.1663 20.9492H30.1611Z" fill="#0F172B"/>
<path d="M47.4398 22.0797H43.8575V20.96H52.2662V22.0694H48.6736V31.6496H47.4501L47.4398 22.0745V22.0797Z" fill="#0F172B"/>
<path d="M56.906 20.9131H64.6407V22.0121H58.1295L58.1191 25.6514L63.9616 25.6669L63.9512 26.7608L58.1191 26.7711L58.1295 30.5037L64.7133 30.5296V31.6079H56.906V20.9183V20.9131Z" fill="#0F172B"/>
<path d="M69.5189 20.9492H73.7958C75.4081 20.9492 76.4916 21.2966 77.2018 22.0431C77.5232 22.38 77.9898 23.2613 77.9898 24.0286C77.9898 25.8171 76.9685 26.9265 75.1022 27.2738L78.3838 31.644H76.8907L73.7803 27.4968H70.7424L70.7268 31.644H69.5241V20.9544L69.5189 20.9492ZM73.7181 26.4185C76.0146 26.4237 76.7611 25.3713 76.787 24.0752C76.6315 23.0177 76.1546 22.0482 73.7699 22.0482L70.7216 22.069V26.3977L73.7181 26.4185Z" fill="#0F172B"/>
<path d="M82.9457 20.9492H84.0966L90.8308 29.5289V20.9492H92.0076V31.6389H91.0381L84.1485 22.8881L84.1381 31.6389H82.9561L82.9406 20.9492H82.9457Z" fill="#0F172B"/>
<path d="M101.37 20.877H102.5L107.373 31.6443H106.077L104.844 28.8346L99.0062 28.8242L97.7361 31.6443H96.4919L101.37 20.877ZM104.346 27.72L101.925 22.287L99.478 27.72H104.346Z" fill="#0F172B"/>
<path d="M113.304 22.0645L109.722 22.0748V20.9551H118.13V22.0748H114.538L114.527 31.6447H113.314L113.304 22.0645Z" fill="#0F172B"/>
<path d="M122.879 20.9492H124.087V31.6389H122.879V20.9492Z" fill="#0F172B"/>
<path d="M129.126 26.3252V26.2941C129.126 23.3755 131.35 20.7679 134.497 20.7627C137.944 20.7627 140.028 23.3392 140.028 26.2527C140.147 29.4461 137.172 32.5876 133.185 31.6752C130.992 31.1724 129.178 29.0573 129.131 26.3201L129.126 26.3252ZM138.784 26.3045V26.2734C138.784 23.6295 136.798 21.8514 134.58 21.8721C131.93 21.898 130.386 23.9509 130.38 26.263V26.2941C130.391 28.824 132.07 30.1978 133.434 30.571C136.363 31.3797 138.893 29.0106 138.784 26.3045Z" fill="#0F172B"/>
<path d="M144.958 20.9492H146.093L152.828 29.5186V20.9492H154.02V31.6389H153.045L146.145 22.8829L146.135 31.6389H144.958V20.9492Z" fill="#0F172B"/>
<path d="M163.382 20.877H164.513L169.391 31.6443H168.09L166.82 28.819L161.019 28.8294L159.738 31.6495H158.509L163.388 20.8821L163.382 20.877ZM166.353 27.7096L163.916 22.2818L161.485 27.7252L166.353 27.7096Z" fill="#0F172B"/>
<path d="M173.87 20.9492H175.078V30.5295L181.107 30.5398L181.097 31.6389H173.865V20.9492H173.87Z" fill="#0F172B"/>
<path d="M5.20485 3.58774H0V0.280273H14.1785V3.58774H8.9737V16.5843H5.21003V3.58774H5.20485Z" fill="#0F172B"/>
<path d="M15.5679 8.48121V8.43456C15.5679 3.79996 19.4041 0 24.6867 0C29.9693 0 33.7537 3.74812 33.7537 8.3879V8.43456C33.7537 13.0692 29.9175 16.8691 24.6349 16.8691C19.3523 16.8691 15.5679 13.121 15.5679 8.48121ZM29.819 8.48121V8.43456C29.819 5.64032 27.6676 3.30747 24.6349 3.30747C21.6022 3.30747 19.5026 5.58848 19.5026 8.3879V8.43456C19.5026 11.2288 21.654 13.5616 24.6867 13.5616C27.7194 13.5616 29.819 11.2806 29.819 8.48121Z" fill="#0F172B"/>
<path d="M41.8669 0.166016H45.3402L52.6706 16.5893H48.7358L47.1702 12.9293H39.9332L38.3676 16.5893H34.5314L41.8617 0.166016H41.8669ZM45.8276 9.76181L43.5569 4.47401L41.2863 9.76181H45.8327H45.8276Z" fill="#0F172B"/>
<path d="M53.894 14.2102L56.118 11.67C57.6577 12.883 59.27 13.6503 61.2244 13.6503C62.7641 13.6503 63.692 13.0697 63.692 12.1106V12.0639C63.692 11.1567 63.1062 10.6902 60.2446 9.9903C56.7971 9.15048 54.5732 8.24326 54.5732 5.00319V4.95652C54.5732 1.99639 57.0667 0.0419922 60.5608 0.0419922C63.0544 0.0419922 65.1799 0.788504 66.9165 2.11564L64.9621 4.81655C63.4484 3.81602 61.9553 3.20948 60.5142 3.20948C59.073 3.20948 58.3161 3.83677 58.3161 4.62993V4.67659C58.3161 5.7497 59.047 6.09704 62.0072 6.81763C65.4805 7.67819 67.4349 8.86534 67.4349 11.7114V11.7581C67.4349 14.9982 64.8429 16.8126 61.1518 16.8126C58.5597 16.8126 55.947 15.952 53.894 14.205V14.2102Z" fill="#0F172B"/>
<path d="M74.3297 3.58774H69.1249V0.280273H83.3034V3.58774H78.0986V16.5843H74.3349V3.58774H74.3297Z" fill="#0F172B"/>
<path d="M86.1807 0.280273H90.2398L94.7396 7.17514L99.2394 0.280273H103.299V16.5895H99.5609V5.94133L94.7448 12.9088H94.6463L89.8821 6.0139V16.5895H86.191V0.280273H86.1807Z" fill="#0F172B"/>
<path d="M113.263 0.166016H116.736L124.066 16.5893H120.131L118.566 12.9293H111.329L109.763 16.5893H105.927L113.257 0.166016H113.263ZM117.223 9.76181L114.953 4.47401L112.682 9.76181H117.228H117.223Z" fill="#0F172B"/>
<path d="M125.29 14.2102L127.514 11.67C129.053 12.883 130.665 13.6503 132.62 13.6503C134.16 13.6503 135.088 13.0697 135.088 12.1106V12.0639C135.088 11.1567 134.502 10.6902 131.64 9.9903C128.193 9.15048 125.969 8.24326 125.969 5.00319V4.95652C125.969 1.99639 128.462 0.0419922 131.956 0.0419922C134.45 0.0419922 136.575 0.788504 138.312 2.11564L136.358 4.81655C134.844 3.81602 133.351 3.20948 131.91 3.20948C130.468 3.20948 129.712 3.83677 129.712 4.62993V4.67659C129.712 5.7497 130.443 6.09704 133.403 6.81763C136.871 7.67819 138.83 8.86534 138.83 11.7114V11.7581C138.83 14.9982 136.238 16.8126 132.547 16.8126C129.955 16.8126 127.342 15.952 125.29 14.205V14.2102Z" fill="#0F172B"/>
<path d="M145.725 3.58774H140.521V0.280273H154.699V3.58774H149.494V16.5843H145.731V3.58774H145.725Z" fill="#0F172B"/>
<path d="M157.581 0.280273H170.485V3.47369H161.319V6.78115H169.386V9.97457H161.319V13.4013H170.609V16.5947H157.581V0.285463V0.280273Z" fill="#0F172B"/>
<path d="M173.958 0.279603H181.781C183.958 0.279603 185.643 0.860225 186.768 1.93334C187.722 2.84056 188.235 4.12103 188.235 5.66071V5.70737C188.235 8.3409 186.742 9.99463 184.57 10.7619L188.748 16.5836H184.347L180.682 11.3632H177.722V16.5836H173.958V0.274414V0.279603ZM181.537 8.20093C183.372 8.20093 184.42 7.2678 184.42 5.89401V5.84733C184.42 4.30765 183.295 3.51967 181.46 3.51967H177.722V8.20093H181.537Z" fill="#0F172B"/>
<path d="M190.454 14.2102L192.678 11.67C194.218 12.883 195.83 13.6503 197.789 13.6503C199.329 13.6503 200.257 13.0697 200.257 12.1106V12.0639C200.257 11.1567 199.671 10.6902 196.81 9.9903C193.362 9.15048 191.138 8.24326 191.138 5.00319V4.95652C191.138 1.99639 193.632 0.0419922 197.126 0.0419922C199.619 0.0419922 201.745 0.788504 203.482 2.11564L201.527 4.81655C200.013 3.81602 198.52 3.20948 197.079 3.20948C195.638 3.20948 194.881 3.83677 194.881 4.62993V4.67659C194.881 5.7497 195.612 6.09704 198.572 6.81763C202.046 7.67819 204 8.86534 204 11.7114V11.7581C204 14.9982 201.408 16.8126 197.717 16.8126C195.125 16.8126 192.512 15.952 190.459 14.205L190.454 14.2102Z" fill="#0F172B"/>
</svg>
